<svg xmlns="http://www.w3.org/2000/svg" width="800" height="600" viewBox="0 0 800 600">
  <rect width="800" height="600" fill="#f0f4f8"/>
  <g transform="translate(400, 300)">
    <!-- Dumbbell -->
    <circle cx="-150" cy="0" r="40" fill="#3b82f6"/>
    <rect x="-150" y="-10" width="300" height="20" fill="#1e40af"/>
    <circle cx="150" cy="0" r="40" fill="#3b82f6"/>
    
    <!-- Person silhouette -->
    <g transform="translate(-250, -50)">
      <!-- Head -->
      <circle cx="0" cy="-80" r="30" fill="#6b7280"/>
      <!-- Body -->
      <rect x="-20" y="-50" width="40" height="100" rx="10" fill="#6b7280"/>
      <!-- Arms -->
      <rect x="-60" y="-30" width="40" height="15" rx="5" fill="#6b7280"/>
      <rect x="20" y="-30" width="40" height="15" rx="5" fill="#6b7280"/>
      <!-- Legs -->
      <rect x="-20" y="50" width="15" height="80" rx="5" fill="#6b7280"/>
      <rect x="5" y="50" width="15" height="80" rx="5" fill="#6b7280"/>
    </g>
    
    <!-- Decorative elements -->
    <circle cx="-100" cy="-100" r="20" fill="#bfdbfe" opacity="0.7"/>
    <circle cx="100" cy="-150" r="30" fill="#bfdbfe" opacity="0.7"/>
    <circle cx="200" cy="-50" r="25" fill="#bfdbfe" opacity="0.7"/>
    <circle cx="-200" cy="100" r="35" fill="#bfdbfe" opacity="0.7"/>
    <circle cx="150" cy="100" r="15" fill="#bfdbfe" opacity="0.7"/>
  </g>
</svg>